<?xml version="1.0" encoding="utf-8"?>
<!-- Generator: Adobe Illustrator 26.2.1, SVG Export Plug-In . SVG Version: 6.00 Build 0)  -->
<svg version="1.1" id="Слой_1" xmlns="http://www.w3.org/2000/svg" xmlns:xlink="http://www.w3.org/1999/xlink" x="0px" y="0px"
	 viewBox="0 0 100 100" style="enable-background:new 0 0 100 100;" xml:space="preserve">
<style type="text/css">
	.st0{fill:#727272;}
</style>
<g>
	<path class="st0" d="M50,5c24.8,0,45,20.2,45,45S74.8,95,50,95S5,74.8,5,50S25.2,5,50,5 M50,0C22.4,0,0,22.4,0,50
		c0,27.6,22.4,50,50,50c27.6,0,50-22.4,50-50C100,22.4,77.6,0,50,0L50,0z"/>
	<g id="l8qdGr.tif_00000023968784287529885320000004769609411744100480_">
		<g>
			<g>
				<path class="st0" d="M50.2,76.4c-0.2,0-0.5,0-0.7,0c-0.3-0.2-0.6-0.3-0.9-0.5c-2.6-1.7-5-3.5-7.3-5.5
					c-5.4-4.8-9.6-10.4-12.3-17.1c-0.1-0.2-0.2-0.4-0.2-0.7c1.2,0.4,2.4,0.8,3.5,1.2c2.5,0.8,5,1.7,7.5,2.5c1.3,0.4,2.4-0.2,2.7-1.4
					c0.2-1-0.4-1.9-1.5-2.2c-4.4-1.5-8.7-3-13.1-4.4c-0.3-0.1-0.5-0.2-0.6-0.5c-0.2-1.1-0.6-2.2-0.7-3.4c-0.1-0.6-0.1-0.6,0.5-0.4
					c3.8,1.3,7.7,2.6,11.5,3.8c0.6,0.2,1.2,0.5,1.8,0.6c0.9,0.1,1.5-0.2,1.9-1c0.6-1.2,0-2.3-1.4-2.8c-4.8-1.6-9.5-3.2-14.3-4.7
					C26.2,39.7,26,39.5,26,39c0-0.9-0.1-1.9-0.1-2.8c0-0.4,0.1-0.5,0.5-0.4c1.6,0.5,3.1,1,4.7,1.5c3,0.9,5.9,1.9,8.9,2.8
					c1.3,0.4,2.3-0.2,2.6-1.5c0.2-1-0.4-1.8-1.5-2.2c-3.3-1.1-6.7-2.2-10-3.3c-1.6-0.5-3.1-1-4.8-1.5c0.4-0.3,0.7-0.5,1-0.7
					c7.3-2.4,14.5-4.9,21.8-7.3c0.6-0.2,1.2-0.2,1.8,0c7.2,2.5,14.5,5,21.7,7.5c1,0.3,1.4,0.9,1.4,2c0.1,3.5,0,6.9-0.6,10.3
					c-0.8,5.1-2.4,9.8-4.9,14.3c-3.2,5.8-7.7,10.7-12.9,14.8C54,74,52.2,75.4,50.2,76.4z"/>
			</g>
		</g>
	</g>
</g>
</svg>
