<?xml version="1.0" encoding="utf-8"?>
<!-- Generator: Adobe Illustrator 26.2.1, SVG Export Plug-In . SVG Version: 6.00 Build 0)  -->
<svg version="1.1" id="Слой_1" xmlns="http://www.w3.org/2000/svg" xmlns:xlink="http://www.w3.org/1999/xlink" x="0px" y="0px"
	 viewBox="0 0 100 100" style="enable-background:new 0 0 100 100;" xml:space="preserve">
<style type="text/css">
	.st0{fill:#727272;}
</style>
<g>
	<path class="st0" d="M50,5c24.8,0,45,20.2,45,45S74.8,95,50,95S5,74.8,5,50S25.2,5,50,5 M50,0C22.4,0,0,22.4,0,50
		c0,27.6,22.4,50,50,50c27.6,0,50-22.4,50-50C100,22.4,77.6,0,50,0L50,0z"/>
	<g id="cfIpCg.tif">
		<g>
			<g>
				<path class="st0" d="M49.6,21.5c0.3,0,0.6,0,0.9,0c0.3,0.2,0.7,0.4,1,0.6c5.7,4.1,11.5,8.1,17.2,12.2c3,2.1,5.9,4.2,8.9,6.3
					c0.6,0.4,1,0.9,1,1.6c0,2.8,0,5.6,0,8.4c0,1.1-1,1.9-2.1,1.7c-0.4-0.1-0.7-0.2-0.9-0.4c-0.5-0.4-1.1-0.8-1.7-1.2
					c0,0.4,0,0.6,0,0.8c0,8.2,0,16.3,0,24.5c0,1.6-1,2.6-2.6,2.6c-1.3,0-2.6,0-3.8,0c-0.6,0-0.7-0.1-0.7-0.7c0-9.1,0-18.2,0-27.2
					c0-0.4,0-0.6-0.5-0.6c-10.7,0-21.5,0-32.2,0c-0.5,0-0.5,0.2-0.5,0.6c0,2.2,0,4.5,0,6.7c0,6.9,0,13.8,0,20.7
					c0,0.4-0.1,0.6-0.5,0.6c-1,0-1.9,0-2.9,0c-0.3,0-0.6,0-0.9,0c-1.5,0.1-2.8-0.9-2.8-2.8c0.1-7.8,0-15.7,0-23.5c0-0.3,0-0.6,0-0.9
					c0-0.2,0.1-0.4-0.1-0.5c-0.2-0.1-0.3,0.1-0.5,0.3c-0.4,0.3-0.8,0.6-1.3,0.9c-0.3,0.2-0.6,0.4-1,0.4c-1,0-1.5-0.5-1.9-1.4
					c0-3,0-6.1,0-9.1c0.2-0.6,0.6-1,1.1-1.3c7-5,14-9.9,21-14.9C45.6,24.2,47.5,22.8,49.6,21.5z"/>
			</g>
			<g>
				<path class="st0" d="M50.1,63.1c4.1,0,8.3,0,12.4,0c0.5,0,0.6,0.1,0.6,0.6c0,1.6,0,3.2,0,4.8c0,0.4-0.1,0.6-0.5,0.6
					c-8.4,0-16.7,0-25.1,0c-0.4,0-0.5-0.2-0.5-0.6c0-1.6,0-3.2,0-4.8c0-0.5,0.1-0.6,0.6-0.6C41.7,63.1,45.9,63.1,50.1,63.1z"/>
			</g>
			<g>
				<path class="st0" d="M50,59.5c-4.2,0-8.3,0-12.5,0c-0.5,0-0.6-0.1-0.6-0.6c0-1.6,0-3.2,0-4.8c0-0.4,0.1-0.5,0.5-0.5
					c8.4,0,16.8,0,25.2,0c0.4,0,0.5,0.1,0.5,0.5c0,1.6,0,3.3,0,4.9c0,0.5-0.2,0.5-0.6,0.5C58.3,59.5,54.2,59.5,50,59.5z"/>
			</g>
			<g>
				<path class="st0" d="M50,78.5c-4.2,0-8.3,0-12.5,0c-0.4,0-0.6-0.1-0.6-0.6c0-1.6,0-3.2,0-4.7c0-0.6,0.2-0.7,0.7-0.7
					c7.9,0,15.9,0,23.8,0c0.4,0,0.9,0,1.3,0c0.3,0,0.4,0.1,0.4,0.4c0,1.7,0,3.5,0,5.2c0,0.5-0.3,0.4-0.5,0.4c-4,0-8,0-12,0
					C50.3,78.5,50.2,78.5,50,78.5z"/>
			</g>
		</g>
	</g>
</g>
</svg>
