<?xml version="1.0" encoding="utf-8"?>
<!-- Generator: Adobe Illustrator 26.2.1, SVG Export Plug-In . SVG Version: 6.00 Build 0)  -->
<svg version="1.1" id="Слой_1" xmlns="http://www.w3.org/2000/svg" xmlns:xlink="http://www.w3.org/1999/xlink" x="0px" y="0px"
	 viewBox="0 0 100 100" style="enable-background:new 0 0 100 100;" xml:space="preserve">
<style type="text/css">
	.st0{fill:#727272;}
</style>
<g>
	<path class="st0" d="M50,5c24.8,0,45,20.2,45,45S74.8,95,50,95S5,74.8,5,50S25.2,5,50,5 M50,0C22.4,0,0,22.4,0,50
		c0,27.6,22.4,50,50,50c27.6,0,50-22.4,50-50C100,22.4,77.6,0,50,0L50,0z"/>
	<g>
		<path class="st0" d="M77.1,52.6c0-9.4-6.5-17.5-14.8-20.9l-5.5,9.6V28.2c0-1-0.8-1.9-1.9-1.9h-9.8c-1,0-1.9,0.8-1.9,1.9v13.1
			l-5.5-9.6C29.5,35.2,23,43.2,23,52.6l0,7.5h54.1L77.1,52.6z M80.3,64.5c-0.3-0.6-0.9-1-1.6-1H21.3c-0.7,0-1.3,0.4-1.6,1
			c-0.3,0.6-0.1,1.3,0.3,1.8c0.3,0.3,7.1,7.3,29.9,7.3s29.6-7,30-7.3C80.4,65.9,80.6,65.2,80.3,64.5z"/>
	</g>
</g>
</svg>
