<?xml version="1.0" encoding="utf-8"?>
<!-- Generator: Adobe Illustrator 26.2.1, SVG Export Plug-In . SVG Version: 6.00 Build 0)  -->
<svg version="1.1" id="Слой_1" xmlns="http://www.w3.org/2000/svg" xmlns:xlink="http://www.w3.org/1999/xlink" x="0px" y="0px"
	 viewBox="0 0 100 100" style="enable-background:new 0 0 100 100;" xml:space="preserve">
<style type="text/css">
	.st0{fill:#727272;}
</style>
<g>
	<path class="st0" d="M50,5c24.8,0,45,20.2,45,45S74.8,95,50,95S5,74.8,5,50S25.2,5,50,5 M50,0C22.4,0,0,22.4,0,50
		c0,27.6,22.4,50,50,50c27.6,0,50-22.4,50-50C100,22.4,77.6,0,50,0L50,0z"/>
	<g id="oirXBs.tif">
		<g>
			<g>
				<path class="st0" d="M70.5,70.9c-13.7,0-27.3,0-41,0c-0.1,0-0.1-0.1-0.2-0.1c-3.4-0.6-5.4-3-5.4-6.5c0-3.7,0-7.4,0-11.1
					c0-3.6,0-7.1,0-10.7c0-3.3,2.5-5.9,5.8-6.1c1.8-0.1,3.6,0,5.5,0c0.3,0,0.5-0.1,0.7-0.4c0.9-1.3,1.7-2.6,2.6-4
					c1.3-2,3.1-2.9,5.4-2.9c4.1,0,8.1,0,12.2,0c2.3,0,4.2,1,5.5,3c0.8,1.3,1.7,2.5,2.5,3.8c0.2,0.3,0.4,0.5,0.9,0.5
					c1.6,0,3.1,0,4.7,0c2.5,0,4.4,1,5.7,3.2c0.4,0.7,0.6,1.5,0.8,2.3c0,7.8,0,15.7,0,23.5c0,0.1-0.1,0.2-0.1,0.2
					c-0.4,2.6-2.3,4.5-4.9,5.1C70.9,70.8,70.7,70.7,70.5,70.9z M50,37.7c-7.7,0-14.1,6.3-14.1,14c0,7.7,6.3,14,14.1,14.1
					c7.7,0,14.1-6.3,14.1-14C64.1,44,57.8,37.7,50,37.7z M67.8,45.2c0.5,0,1,0,1.6-0.1c0.8-0.2,1.4-1,1.4-1.8c0-0.9-0.7-1.7-1.6-1.8
					c-0.9-0.1-1.8-0.1-2.7,0c-0.9,0.1-1.6,0.8-1.7,1.7c0,0.9,0.6,1.7,1.5,1.9C66.8,45.2,67.3,45.2,67.8,45.2z"/>
			</g>
			<g>
				<path class="st0" d="M50,59.5c-4.4-0.1-7.9-3.6-7.8-7.8c0.1-4.3,3.6-7.8,7.9-7.8c4.4,0.1,7.9,3.6,7.8,7.8
					C57.8,56.1,54.2,59.6,50,59.5z"/>
			</g>
		</g>
	</g>
</g>
</svg>
