<?xml version="1.0" encoding="utf-8"?>
<!-- Generator: Adobe Illustrator 26.2.1, SVG Export Plug-In . SVG Version: 6.00 Build 0)  -->
<svg version="1.1" id="Слой_1" xmlns="http://www.w3.org/2000/svg" xmlns:xlink="http://www.w3.org/1999/xlink" x="0px" y="0px"
	 viewBox="0 0 100 100" style="enable-background:new 0 0 100 100;" xml:space="preserve">
<style type="text/css">
	.st0{fill:#727272;}
</style>
<g>
	<path class="st0" d="M50,5c24.8,0,45,20.2,45,45S74.8,95,50,95S5,74.8,5,50S25.2,5,50,5 M50,0C22.4,0,0,22.4,0,50
		c0,27.6,22.4,50,50,50c27.6,0,50-22.4,50-50C100,22.4,77.6,0,50,0L50,0z"/>
	<g id="gf3coY.tif_00000009584147250933291820000014422404469889094273_">
		<g>
			<g>
				<path class="st0" d="M25.7,26.2c0.3-1,0.7-1.8,1.6-2.3c1.4-0.8,3-0.6,4.2,0.7c2.2,2.2,4.5,4.5,6.7,6.7c2.6,2.6,5.1,5.1,7.7,7.7
					c0.3,0.3,0.4,0.3,0.7,0c0.7-0.8,1.5-1.6,2.3-2.3c2.4-2.1,5-2.5,8-1.5c1.3,0.5,2.5,1.1,3.8,1.6c0.4,0.2,0.3,0.3,0.1,0.5
					c-7.1,7.1-14.2,14.2-21.2,21.2c-0.1,0.1-0.1,0.1-0.3,0.2c-0.3-0.7-0.5-1.3-0.8-1.9c-0.5-1.3-1.2-2.4-1.4-3.8
					c-0.4-2.6,0.3-4.9,2.2-6.8c0.6-0.6,1.2-1.2,1.8-1.8c0.4-0.3,0.4-0.5,0-0.9C36.6,39,32,34.4,27.4,29.8c-0.7-0.7-1.4-1.5-1.7-2.6
					C25.7,26.9,25.7,26.6,25.7,26.2z"/>
			</g>
			<g>
				<path class="st0" d="M25.7,72.7c0.3-1,0.8-1.9,1.7-2.4c1.2-0.6,2.4-0.6,3.4,0.2c1.1,0.8,1.6,1.8,1.4,3.2c-0.2,1.3-1,2.3-2.3,2.7
					c-0.2,0.1-0.3,0.1-0.5,0.2c-0.3,0-0.7,0-1,0c-0.3-0.1-0.6-0.2-0.9-0.3c-1.1-0.5-1.6-1.4-1.9-2.5C25.7,73.4,25.7,73.1,25.7,72.7z
					"/>
			</g>
			<g>
				<path class="st0" d="M46.6,76.5c-0.9-2.1-1.7-4.1-2.5-6.1c-0.9-2.2-1.8-4.4-2.8-6.6c-0.2-0.4-0.1-0.6,0.2-0.8
					c7.9-7.9,15.8-15.8,23.7-23.7c0.3-0.3,0.5-0.3,0.8-0.2c4.1,1.7,8.2,3.4,12.3,5.1c0.5,0.2,0.5,0.2,0.1,0.6
					C69.2,54,59.9,63.3,50.7,72.5c-1.2,1.2-2.4,2.4-3.6,3.6C46.9,76.2,46.8,76.4,46.6,76.5z"/>
			</g>
			<g>
				<path class="st0" d="M30.2,61.1c1.2,0,2.2,1,2.2,2.2c0,1.2-1,2.2-2.2,2.2c-1.2,0-2.2-1-2.2-2.2C27.9,62,28.9,61.1,30.2,61.1z"/>
			</g>
			<g>
				<path class="st0" d="M36.8,72.1c-1.2,0-2.2-1-2.2-2.2c0-1.2,1-2.2,2.2-2.2c1.2,0,2.2,1,2.2,2.2C39,71.2,38,72.1,36.8,72.1z"/>
			</g>
		</g>
	</g>
</g>
</svg>
