<?xml version="1.0" encoding="utf-8"?>
<!-- Generator: Adobe Illustrator 26.2.1, SVG Export Plug-In . SVG Version: 6.00 Build 0)  -->
<svg version="1.1" id="Слой_1" xmlns="http://www.w3.org/2000/svg" xmlns:xlink="http://www.w3.org/1999/xlink" x="0px" y="0px"
	 viewBox="0 0 100 100" style="enable-background:new 0 0 100 100;" xml:space="preserve">
<style type="text/css">
	.st0{fill:#727272;}
</style>
<g>
	<path class="st0" d="M50,5c24.8,0,45,20.2,45,45S74.8,95,50,95S5,74.8,5,50S25.2,5,50,5 M50,0C22.4,0,0,22.4,0,50
		c0,27.6,22.4,50,50,50c27.6,0,50-22.4,50-50C100,22.4,77.6,0,50,0L50,0z"/>
	<g id="IAIzUr_00000031928951325072320300000009046470789461655183_">
		<g>
			<g>
				<path class="st0" d="M31.7,73.4c0-15.6,0-31.2,0-46.7c6.2,0,12.5,0,18.7,0c0.4,0.2,0.9,0.1,1.3,0.2c0.3,0.1,0.4,0.1,0.4,0.5
					c0,2.3,0,4.6,0,6.9c0,0.3-0.1,0.4-0.4,0.3c-2.5-0.3-5-0.1-7.5-0.2c-1.1,0-2.2,0-3.3,0c-0.3,0-0.5,0.1-0.5,0.5c0,0.1,0,0.2,0,0.2
					c0,9.8,0,19.6,0,29.4c0,0.6,0.1,0.7,0.7,0.7c3.3-0.1,6.5,0.1,9.8-0.1c1.3-0.1,2.5-0.3,3.7-0.8c2.7-1.1,4.2-3.2,4.6-6
					c0.2-0.9,0.2-1.8,0.2-2.7c0-3.6,0-7.2,0-10.7c0-0.6,0.2-0.7,0.7-0.7c2.5,0,5,0,7.5,0c0.4,0,0.6,0.1,0.6,0.5
					c0,4.3,0.1,8.5-0.1,12.8c-0.1,3.4-0.9,6.5-2.9,9.3c-2.2,3.1-5.3,4.8-8.9,5.7c-1.5,0.4-3.1,0.6-4.7,0.7c-0.2,0-0.4,0-0.6,0.1
					C44.7,73.4,38.2,73.4,31.7,73.4z"/>
			</g>
			<g>
				<path class="st0" d="M55.1,28.4c4.4,4.3,8.6,8.5,12.8,12.7c-0.2,0.2-0.4,0.1-0.5,0.1c-3.9,0-7.8,0-11.7,0
					c-0.5,0-0.6-0.1-0.6-0.6c0-3.9,0-7.7,0-11.6C55.1,28.9,55.1,28.8,55.1,28.4z"/>
			</g>
		</g>
	</g>
</g>
</svg>
