<?xml version="1.0" encoding="utf-8"?>
<!-- Generator: Adobe Illustrator 26.2.1, SVG Export Plug-In . SVG Version: 6.00 Build 0)  -->
<svg version="1.1" id="Слой_1" xmlns="http://www.w3.org/2000/svg" xmlns:xlink="http://www.w3.org/1999/xlink" x="0px" y="0px"
	 viewBox="0 0 100 100" style="enable-background:new 0 0 100 100;" xml:space="preserve">
<style type="text/css">
	.st0{fill:#727272;}
</style>
<g>
	<path class="st0" d="M50,5c24.8,0,45,20.2,45,45S74.8,95,50,95S5,74.8,5,50S25.2,5,50,5 M50,0C22.4,0,0,22.4,0,50
		c0,27.6,22.4,50,50,50c27.6,0,50-22.4,50-50C100,22.4,77.6,0,50,0L50,0z"/>
	<g id="LGyHTH.tif_00000141431714623245778740000000650546164673092005_">
		<g>
			<g>
				<path class="st0" d="M25.4,70.9c0-6.5,0-13,0-19.5c16.2,0,32.5,0,48.7,0c0.3,0,0.5,0,0.5,0.4c0,6.1,0,12.3,0,18.4
					c0,0.4,0,0.8-0.2,1.2c-0.5,2-2.2,3.2-4.4,3.2c-10.7,0-21.4,0-32.1,0c-2.8,0-5.5,0-8.3,0c-1.9,0-3.5-1.2-4.1-3
					C25.5,71.4,25.4,71.1,25.4,70.9z M49.9,60.1c2.5,0,5,0,7.5,0c2.4,0,4.7,0,7.1,0c0.8,0,1.4-0.5,1.5-1.3c0.1-0.7-0.4-1.4-1.1-1.6
					c-0.2,0-0.4,0-0.6,0c-9.5,0-18.9,0-28.4,0c-0.1,0-0.3,0-0.4,0c-0.6,0.1-1,0.4-1.2,0.9c-0.4,1,0.3,2,1.5,2
					C40.4,60.1,45.2,60.1,49.9,60.1z M50,63c-3,0-6,0-9,0c-1.8,0-3.7,0-5.5,0c-0.8,0-1.4,0.6-1.4,1.3c-0.1,0.7,0.4,1.4,1.1,1.6
					c0.2,0,0.4,0,0.6,0c9.5,0,18.9,0,28.4,0c0.1,0,0.3,0,0.4,0c0.7-0.1,1.3-0.6,1.4-1.4c0-0.7-0.5-1.4-1.2-1.5c-0.2,0-0.4,0-0.6,0
					C59.5,63,54.7,63,50,63z"/>
			</g>
			<g>
				<path class="st0" d="M67.8,25.4c0.7,0.3,1,0.9,1.2,1.6c1.7,7,3.5,14,5.2,21c0.1,0.4,0,0.5-0.4,0.5c-3.4,0-6.8,0-10.2,0
					c-0.4,0-0.5-0.1-0.5-0.5c0-5.4,0-10.9,0-16.3c0-0.4-0.1-0.5-0.5-0.5c-8.4,0-16.8,0-25.2,0c-0.4,0-0.5,0.1-0.5,0.5
					c0,5.4,0,10.8,0,16.3c0,0.4-0.1,0.6-0.5,0.6c-3.4,0-6.8,0-10.2,0c-0.4,0-0.4-0.1-0.3-0.5c1.8-7,3.5-14.1,5.3-21.1
					c0.2-0.7,0.5-1.2,1.1-1.5c1.2,0,2.4,0,3.7,0c0.8,0.4,1.2,1,1.1,1.9c0,0.1,0,0.3,0,0.4c-0.1,0.5,0.1,0.6,0.6,0.6
					c8.3,0,16.5,0,24.8,0c0.8,0,0.8,0,0.8-0.8c-0.1-0.9,0.2-1.7,1.1-2.1C65.4,25.4,66.6,25.4,67.8,25.4z"/>
			</g>
			<g>
				<path class="st0" d="M56.3,48.5c-1.4,0-2.6,0-3.9,0c-0.2,0-0.3-0.2-0.4-0.3c-1.1-1.1-2.1-2.1-3.2-3.2c-0.3-0.3-0.4-0.3-0.7,0
					c-0.2,0.3-0.5,0.5-0.7,0.7c-0.7,0.6-1.6,0.5-2.1-0.2c-1.7-2.4-3.5-4.8-5.2-7.2c-0.4-0.6-0.3-1.2,0.1-1.7
					c0.7-0.7,1.4-1.5,2.1-2.1c0.6-0.5,1.2-0.5,1.9,0c2,1.4,4,2.9,6,4.3c0.3,0.2,0.7,0.5,1,0.7c0.8,0.6,0.8,1.5,0.2,2.2
					c-0.2,0.2-0.5,0.5-0.7,0.7c-0.3,0.2-0.2,0.4,0,0.6c1.7,1.7,3.4,3.4,5.1,5.1C56.1,48.2,56.2,48.3,56.3,48.5z"/>
			</g>
		</g>
	</g>
</g>
</svg>
