<?xml version="1.0" encoding="UTF-8"?><svg xmlns="http://www.w3.org/2000/svg" viewBox="0 0 177.17 50.25"><defs><style>.d{fill:#fff;}</style></defs><g id="a"/><g id="b"><g id="c"><g><g><path class="d" d="M52.33,8.28V40.56c0,3.78-3.09,6.88-6.88,6.88h-10.42c.37-1.78,.71-3.46,.72-3.52,.02-.11,.24-1,.26-1.12,1.76-.78,2.36-1.36,4.09-2.21,2.01-1,3.94-2.23,5.88-3.35,.76-.32,1.84-.93,1.93-2.27,.08-.83-11.5-21.21-14.88-26.62-.29-.43-.78-1.33-1.17-1.66-.86-.84-2.18-1.15-3.32-.78-.28,.08-.55,.22-.79,.37-2.56,1.54-5.89,3.26-8.82,4.92-.99,.56-1.94,1.12-2.81,1.65-1.14,.72-1.73,2.09-1.59,3.4l-8.24,5.43L0,25.83l6.29-8.75V8.28c0-3.78,3.09-6.88,6.88-6.88H45.45c3.78,0,6.88,3.09,6.88,6.88Z"/><path class="d" d="M46.97,35.03c-.08,.43-.39,.8-.81,.94h-.02l-.09,.05c-1.46,.75-3.08,1.61-4.51,2.44-1.49,.85-2.95,1.74-4.39,2.66-.31,.2-.63,.4-.94,.6,.07-.28,.14-.55,.22-.82,.3-1.01,.7-1.96,1.16-2.84,.18-.34,.45-.58,.76-.84,.05-.04,.11-.09,.16-.14l.24-.21c.26-.23,.52-.46,.78-.7h0c.21-.2,.42-.39,.62-.6,.05-.05,.09-.1,.14-.15,.12-.13,.25-.27,.36-.43,.1-.15,.17-.31,.24-.46,.05-.1,.09-.2,.14-.3,.19-.39,.39-.8,.45-1.26,.08-.55,.02-1.1-.04-1.64v-.09c-.09-.72-.12-1.27-.12-1.79,0-.11,0-.21,0-.32,.02-.52,.04-1.05-.33-1.54-.19-.24-.42-.39-.65-.53-.24-.15-.44-.28-.57-.5-.05-.09-.1-.19-.15-.29-.07-.15-.14-.3-.24-.45-.21-.32-.52-.57-.88-.71-.07-.03-.15-.06-.22-.08-.23-.08-.43-.15-.58-.31-.02-.02-.03-.03-.03-.04,0-.01-.01-.05-.01-.07-.01-.08-.02-.16-.03-.23-.02-.18-.04-.36-.07-.55-.11-.6-.62-1.05-1.2-1.07-.15,0-.28,.01-.41,.03-.07,0-.14,.02-.21,.02-.29,.02-.51-.14-.77-.41-.05-.05-.09-.49-.05-.62,.23-.72,.12-1.49-.29-2-.31-.39-.74-.6-1.26-.6-.75,0-1.34,.27-1.81,.77-.84-1.38-1.65-2.61-2.45-4.01-.09-.15-.52-.96-.62-1.07-.3-.37-.82-.53-1.28-.39-.15,.04-.32,.14-.46,.22-.37,.22-1.26,.79-1.63,1.02l-.37,.22c-.47,.3-.67,.8-.59,1.28,.04,.23,.13,.46,.29,.67,.53,.83,1.07,1.65,1.61,2.46-.48-.14-.97-.12-1.35,.06-.35,.17-.6,.48-.71,.88v.05l.02,.26c-.04,.36,.34,.66,.59,.85l.1,.08c.34,.28,.58,.54,.75,.81,.19,.29,.32,.63,.44,.96,.07,.2,.15,.4,.23,.6,.22,.57,.46,1.17,.61,1.76,.11,.4,.17,.8,.2,1.17,0,.14,.01,.28,.02,.42,0,.25,.01,.52,.06,.78,.07,.38,.24,.69,.41,.98,.04,.07,.08,.15,.12,.22,.28,.52,.47,1.1,.66,1.66,.04,.11,.14,.41,.14,.41,.02,.04,.03,.09,.04,.13,.27,.76,.58,1.4,.96,1.98,0,.14-.21,.56-.29,.73-.06,.12-.11,.21-.13,.28-.1,.29-.33,.81-.58,1.36-.08-.12-.15-.24-.22-.36-3.74-6.15-6.41-12.93-10.21-19.04l-.61-1.03-.04-.07c-.24-.4-.13-.97,.27-1.24,.95-.61,2.01-1.24,3.11-1.89,2.84-1.68,5.97-3.45,8.4-5.04,.48-.31,1.16-.17,1.5,.28,.48,.65,1.72,2.33,2.22,2.99,2.4,3.17,11.2,17.89,13.64,22.02,.07,.12,.36,.6,.42,.7,.14,.27,.19,.59,.13,.88Z"/><path class="d" d="M31.29,20.25s-.06,.07-.09,.11c-.24,.31-.35,.67-.46,1.02-.05,.17-.11,.34-.17,.49-.11,.27-.22,.54-.34,.81l-.11,.26c-.09,.21-.17,.43-.26,.64-.02,.06-.05,.13-.08,.19-.05,.12-.09,.23-.14,.35-.04,.1-.08,.22-.11,.33-.06,.18-.11,.36-.19,.49,0-.01-.01-.02-.02-.03-.06-.09-.11-.18-.17-.27l-.11-.17c-.21-.34-.42-.68-.62-1.01-.44-.72-.83-1.37-1.2-2l-.07-.12c-.07-.12-.14-.24-.22-.35-.28-.5-.57-1-.85-1.49-.36-.63-.73-1.27-1.1-1.9l-.11-.19c-.17-.29-.08-.7,.22-.88l.37-.22c.37-.22,1.11-.68,1.47-.91,.08-.04,.21-.15,.31-.18,.3-.11,.63,.03,.79,.31,1.08,1.57,2.19,3.13,3.25,4.72Z"/><path class="d" d="M41.04,32.92c-.05,.39-.22,.74-.41,1.12-.05,.1-.1,.2-.15,.31-.05,.12-.1,.23-.16,.33-.01,.02-.02,.04-.04,.07-.09,.13-.2,.24-.31,.37-.3,.32-.63,.63-.96,.93-.07-.09-.15-.19-.23-.27-.48-.53-1.08-.92-1.72-1.15,.57,.37,1.02,.87,1.33,1.43-.56-.35-1.19-.52-1.8-.5,.55,.14,1.03,.43,1.38,.81,.1,.11,.2,.22,.28,.34l-.04,.04s-.05,.04-.08,.06c-.14-.1-.29-.18-.44-.24-.32-.12-.65-.15-.95-.1,.21,.06,.41,.17,.57,.3,.16,.13,.29,.28,.38,.45-.09,.09-.18,.19-.27,.29-.08,.11-.16,.22-.23,.35-.48,.91-.88,1.89-1.19,2.93-.13,.44-.24,.88-.34,1.32-.08,.38-.16,.75-.24,1.12-.04,.2-.08,.4-.12,.59h0c-.01,.07-.03,.17-.07,.2-.03,.02-.33,1.7-.65,3.43h-9.12l-4.31,2.82c.17-.28,.97-1.55,1.78-2.82,.88-1.37,1.75-2.74,1.79-2.8,.37-.55,.81-1.22,1.21-1.97,.39-.72,1.59-2.15,1.77-2.28,.76-.53,1.16-1.49,1.05-2.4,0,0,0-.02,0-.03,0-.07,.03-.2,.07-.38,.12-.54,.37-1.46,.55-1.96,.11-.29,.33-.51,.57-.7,.22-.18,.51-.41,.79-.45-.15-.05-.31-.09-.46-.13-.14-.04-.3-.05-.44-.1-.17-.07-.23-.25-.31-.4,.43-.15,.91-.23,1.39-.22-.5-.16-1.05-.23-1.61-.19-.15-.31-.29-.63-.42-.99,0,0,.36-1.52,.48-2.33,.12-.79,.11-1.61-.04-2.4,.05,.79-.04,1.58-.26,2.33-.12,.44-.29,.87-.44,1.31,.18-1.05,.22-2.11,.13-3.14-.09,.82-.27,1.62-.52,2.39-.08-.19-.17-.38-.27-.56-.04-.08-.09-.16-.13-.23-.16-.27-.3-.53-.35-.83-.04-.23-.05-.46-.06-.71,0-.15,0-.3-.02-.45-.03-.4-.11-.82-.22-1.25-.17-.63-.4-1.23-.63-1.82-.05-.12-.09-.25-.14-.37l-.11-.3h0c-.12-.33-.25-.66-.45-.97-.2-.31-.47-.6-.84-.92-.03-.02-.07-.06-.11-.09-.36-.27-.42-.38-.41-.43v-.04l-.02-.24c.08-.25,.23-.44,.45-.54,.33-.16,.82-.14,1.27,.05,.27,.12,.41,.36,.57,.64l.07,.12c.37,.63,.77,1.28,1.2,2,.21,.34,.41,.68,.62,1.02,.03,.06,.07,.11,.1,.17,.06,.1,.12,.19,.17,.29,.02,.02,.03,.05,.05,.07,.07,.11,.15,.25,.31,.26,.02,0,.04,0,.07,0,.08,0,.15-.05,.2-.1,.03-.02,.05-.05,.06-.06,.19-.2,.28-.5,.36-.76,.03-.11,.06-.21,.1-.29,.02-.04,.03-.09,.05-.13,.06-.14,.11-.27,.17-.41,.09-.21,.17-.42,.26-.63l.11-.26c.11-.27,.22-.54,.34-.81,.07-.18,.13-.36,.19-.54,.1-.31,.19-.61,.37-.85,0,0,0-.01,.01-.02,.01-.02,.03-.04,.05-.06,.37-.45,1.09-.9,1.75-.91,.37,0,.67,.14,.89,.42,.31,.4,.39,1,.21,1.58-.03,.09-.06,.18-.08,.27,0,0-.23,.86-.3,1.3-.06,.37-.11,.74-.14,1.11l.04,.06c.18-.56,.41-1.11,.66-1.65,.3,.3,.64,.57,1.13,.54,.08,0,.16-.02,.25-.03,.12-.02,.22-.03,.33-.03,.37,.02,.69,.3,.76,.69,.03,.17,.05,.34,.07,.52,0,.08-.05,.28-.05,.28-.12,.3-.21,.58-.29,.89-.07,.3-.15,.61-.11,.92,.14-.51,.48-.93,.81-1.33,.19,.14,.4,.22,.61,.29,.07,.02,.14,.05,.21,.07,.27,.11,.51,.3,.66,.53,.08,.12,.14,.25,.2,.39,.05,.11,.1,.22,.16,.32,.19,.32,.47,.51,.73,.66,.2,.13,.39,.24,.52,.42,.27,.36,.26,.77,.24,1.24,0,.11,0,.22,0,.34,0,.53,.03,1.1,.11,1.84v.09c.06,.51,.12,1.03,.05,1.53Z"/></g><g><path class="d" d="M61.24,16.16V4.19h8.98v11.97h-3.75V7.18h-1.49v8.98h-3.75Z"/><path class="d" d="M71.59,16.16V4.19h8v1.49l-.6,1.52h-3.68v1.33h3.68v2.99h-3.68v1.64h4.28v2.99h-8Z"/><path class="d" d="M84.36,12.44v3.73h-3.75V4.19h7.47c.89,0,1.5,.62,1.5,1.49v5.25c0,.87-.62,1.51-1.5,1.51h-3.73Zm0-2.99h1.49v-2.24h-1.49v2.24Z"/><path class="d" d="M90.79,16.16V4.19h7.47c.89,0,1.5,.62,1.5,1.49v2.75c0,.87-.72,1.44-1.54,1.44v.33c.82,0,1.54,.56,1.54,1.45v3.03c0,.87-.62,1.49-1.5,1.49h-7.47Zm5.23-8.96h-1.49v1.33h1.49v-1.33Zm-1.49,5.97h1.49v-1.64h-1.49v1.64Z"/><path class="d" d="M109.8,9.43v5.23c0,.87-.62,1.51-1.49,1.51h-7.34V4.19h3.75v3.75h3.59c.87,0,1.49,.62,1.49,1.49Zm-3.73,3.75v-2.24h-1.35v2.24h1.35Zm8.52-8.98v11.97h-3.75V4.19h3.75Z"/><path class="d" d="M121.19,4.19h3.75v11.97h-3.75v-1.49l.56-3.83h-.29l-1.76,4.12v1.2h-3.75V4.19h3.75v1.49l-.56,3.83h.31l1.74-4.12v-1.2Zm-3.56-4.19h5.63V1.66l-.48,1.21h-5.15V0Z"/><path class="d" d="M64.98,18.45v8.98h1.35v-8.98h3.73v8.98h1.35v-8.98h3.73v11.97h-13.91v-11.97h3.75Z"/><path class="d" d="M76,21.46v-3.01h8.38v1.49l-.6,1.52h-1.8v8.96h-3.75v-8.96h-2.24Z"/><path class="d" d="M87.34,30.42v-1.49l.48-1.35-3.1-7.65v-1.49h3.59l.96,4.69h.41l.72-4.69h3.47v1.49l-3.23,10.49h-3.3Z"/><path class="d" d="M100.05,18.45h3.54v1.49l-1.39,4.14,1.68,4.86v1.49h-3.73l-1.01-4.64h-.67v4.64h-3.75v-11.97h3.75v4.34h.67l.91-4.34Z"/><path class="d" d="M112.47,18.45l1.68,10.49v1.49h-3.75l-.22-2.41h-1.64l-.24,2.41h-3.73v-1.49l1.68-10.49h6.23Zm-2.57,6.57l-.34-3.56h-.41l-.34,3.56h1.09Z"/><path class="d" d="M113.97,21.46v-3.01h8.38v1.49l-.6,1.52h-1.8v8.96h-3.75v-8.96h-2.24Z"/><path class="d" d="M125.31,30.42v-1.49l.48-1.35-3.1-7.65v-1.49h3.59l.96,4.69h.41l.72-4.69h3.47v1.49l-3.23,10.49h-3.3Z"/><path class="d" d="M136.45,26.69v3.73h-3.75v-11.97h7.47c.89,0,1.5,.62,1.5,1.49v5.25c0,.87-.62,1.51-1.5,1.51h-3.73Zm0-2.99h1.49v-2.24h-1.49v2.24Z"/><path class="d" d="M148.11,22.79v-4.34h3.73v11.97h-3.73v-4.64h-1.5v4.64h-3.73v-11.97h3.73v4.34h1.5Z"/><path class="d" d="M162.04,23.68v5.23c0,.87-.62,1.51-1.49,1.51h-7.34v-11.97h3.75v3.75h3.59c.87,0,1.49,.62,1.49,1.49Zm-3.73,3.75v-2.24h-1.35v2.24h1.35Zm8.52-8.98v11.97h-3.75v-11.97h3.75Z"/><path class="d" d="M173.43,18.45h3.75v11.97h-3.75v-1.49l.56-3.83h-.29l-1.76,4.12v1.2h-3.75v-11.97h3.75v1.49l-.56,3.83h.31l1.74-4.12v-1.2Zm-3.56-4.19h5.63v1.66l-.48,1.21h-5.15v-2.87Z"/><path class="d" d="M64.98,41.68h1.49v-8.98h3.75v8.98h.99v2.99h-9.97v-11.97h3.75v8.98Z"/><path class="d" d="M72.06,44.67v-11.97h8v1.49l-.6,1.52h-3.68v1.33h3.68v2.99h-3.68v1.64h4.28v2.99h-8Z"/><path class="d" d="M86.33,37.04v-4.34h3.73v11.97h-3.73v-4.64h-1.5v4.64h-3.73v-11.97h3.73v4.34h1.5Z"/><path class="d" d="M90.91,35.71v-3.01h8.38v1.49l-.6,1.52h-1.8v8.96h-3.75v-8.96h-2.24Z"/><path class="d" d="M103.9,40.94v3.73h-3.75v-11.97h7.47c.89,0,1.5,.62,1.5,1.49v5.25c0,.87-.62,1.51-1.5,1.51h-3.73Zm0-2.99h1.49v-2.24h-1.49v2.24Z"/></g></g></g></g></svg>