<?xml version="1.0" encoding="UTF-8"?><svg xmlns="http://www.w3.org/2000/svg" viewBox="0 0 276.25 276.25"><defs><style>.e{fill:#95918c;}.f{fill:#95918d;}</style></defs><g id="a"/><g id="b"><g id="c"><g><path class="e" d="M248.8,276.25H27.45c-15.14,0-27.45-12.31-27.45-27.45V27.45C0,12.31,12.31,0,27.45,0H248.8c15.14,0,27.45,12.31,27.45,27.45V248.8c0,15.14-12.31,27.45-27.45,27.45ZM27.45,7c-11.28,0-20.45,9.17-20.45,20.45V248.8c0,11.28,9.17,20.45,20.45,20.45H248.8c11.28,0,20.45-9.17,20.45-20.45V27.45c0-11.28-9.17-20.45-20.45-20.45H27.45Z"/><rect class="e" x="7.08" y="162.69" width="262.09" height="7"/><polygon class="e" points="63.65 243.97 52.44 197.84 6.48 197.84 6.48 190.84 57.94 190.84 64.8 219.05 74.48 190.84 108.56 190.84 118.48 209.55 126.58 190.84 161.34 190.84 174.73 223.36 185.98 190.84 215.29 190.84 223.88 214.69 233.38 190.84 269.77 190.84 269.77 197.84 238.12 197.84 223.56 234.44 210.37 197.84 190.97 197.84 175.31 243.13 156.66 197.84 131.18 197.84 119.11 225.69 104.35 197.84 79.47 197.84 63.65 243.97"/><g id="d"><g><path class="f" d="M137.85,41.74c27.55,0,49.86,22.16,49.75,49.6-.11,27.24-21.93,49.3-49.61,49.36-27.17,.06-49.41-22.38-49.34-49.71,.08-26.51,21.62-48.97,49.19-49.25Zm40.59,49.46c.02-22.12-18.1-40.23-40.31-40.27-22.09-.04-40.33,18.07-40.28,40.21,.05,22.53,17.89,40.19,40.03,40.38,22.41,.19,40.56-18.15,40.56-40.32Z"/><path class="f" d="M114.01,99.74c2.8,0,5.61,0,8.41,0,.35,0,.63-.02,.63,.49-.02,5.46,2.68,9.4,6.97,12.46,4.5,3.21,12.95,3.75,18.55-1.86,2.42-2.43,4-5.2,4.57-8.56,.11-.67,.11-1.36,.09-2.04-.01-.38,.13-.5,.5-.5,5.69,0,11.38,0,17.07,0,.43,0,.51,.1,.39,.53-1.79,6.45-5.22,11.88-10.17,16.37-4.71,4.28-10.18,7.07-16.41,8.26-3.46,.66-6.99,.64-10.48,.28-8.54-.87-15.57-4.77-21.38-11.01-3.69-3.96-6.04-8.66-7.7-13.75-.18-.55,0-.63,.49-.63,2.82,.01,5.65,0,8.47,0v-.06Z"/><path class="f" d="M125.07,74c.34,.38,.64,.69,.91,1.02,4.05,4.96,8.1,9.93,12.14,14.91,.32,.4,.67,.58,1.17,.67,4.9,.9,8.1,4.46,8.2,9.26,.09,4.53-3.38,8.61-7.93,9.26-3.49,.5-6.46-.63-8.67-3.39-2.22-2.77-2.71-5.9-1.43-9.24,.33-.86,.42-1.66,.2-2.58-1.55-6.41-3.06-12.82-4.58-19.23-.04-.18-.12-.35-.02-.68Z"/><path class="f" d="M113.74,78.98c-.11-.05-.24-.11-.37-.17-1.76-.94-3.47-1.96-5.17-3-.42-.26-.45-.49-.22-.89,.34-.58,.65-1.19,1.06-1.73,.2-.26,.41-.35,.74-.19,1.94,.99,3.79,2.16,5.67,3.25,.17,.1,.24,.2,.12,.39-.45,.71-.83,1.47-1.4,2.1-.11,.12-.22,.25-.43,.24Z"/><path class="f" d="M122.19,60.9c.25-.04,.33,.12,.42,.26,1.13,1.77,2.19,3.58,3.17,5.43,.13,.25,.13,.45-.1,.65-.65,.58-1.42,.98-2.15,1.43-.2,.13-.29,0-.38-.15-1.1-1.86-2.24-3.69-3.22-5.62-.09-.18-.23-.38-.04-.57,.68-.65,1.53-1.03,2.31-1.44Z"/><path class="f" d="M156.47,62.61c-.04,.09-.09,.21-.14,.32-.92,1.75-1.89,3.48-2.94,5.16-.41,.66-.51,.67-1.19,.28-.54-.31-1.06-.64-1.53-1.05-.25-.22-.34-.43-.16-.75,1-1.83,2-3.65,3.13-5.4,.14-.22,.29-.4,.6-.24,.72,.37,1.4,.79,2.03,1.29,.11,.09,.22,.19,.2,.38Z"/><path class="f" d="M168.5,75.28c.04,.23-.12,.31-.25,.4-1.84,1.16-3.73,2.26-5.63,3.32-.21,.12-.33,.08-.47-.1-.49-.64-.92-1.31-1.3-2.02-.21-.38,.07-.52,.3-.68,1.51-1.08,3.12-1.99,4.75-2.87,1.04-.56,.87-.76,1.72,.42,.35,.48,.67,.99,.89,1.53Z"/><path class="f" d="M136.51,60.65c0-1.05,.01-2.1,0-3.15,0-.35,.11-.46,.46-.46,.78,.02,1.56,.02,2.34,0,.33,0,.48,.07,.48,.44-.01,2.14-.01,4.28,0,6.42,0,.35-.11,.47-.46,.46-.78-.02-1.56-.03-2.34,0-.4,.01-.48-.15-.47-.51,.02-1.07,0-2.14,0-3.21Z"/><path class="f" d="M107.57,92.87c-1.05,0-2.1-.01-3.15,0-.35,0-.47-.1-.46-.46,.02-.8,.02-1.6,0-2.41,0-.33,.12-.42,.43-.41,2.14,0,4.28,.01,6.42,0,.34,0,.47,.09,.46,.45-.02,.78-.03,1.56,0,2.34,.01,.39-.14,.49-.5,.48-1.07-.02-2.14,0-3.21,0Z"/><path class="f" d="M168.7,89.6c1.05,0,2.1,.01,3.15,0,.34,0,.48,.09,.47,.45-.02,.8-.02,1.61,0,2.41,0,.33-.12,.42-.44,.42-2.14,0-4.28,0-6.43,0-.31,0-.45-.09-.44-.42,.02-.8,.02-1.61,0-2.41,0-.36,.14-.45,.47-.45,1.07,.02,2.14,0,3.21,0Z"/></g></g></g></g></g></svg>