<?xml version="1.0" encoding="UTF-8"?><svg xmlns="http://www.w3.org/2000/svg" viewBox="0 0 276.25 276.25"><defs><style>.e{fill:#95918c;}.f{fill:#95918d;}</style></defs><g id="a"/><g id="b"><g id="c"><g><path class="e" d="M248.8,276.25H27.45c-15.14,0-27.45-12.31-27.45-27.45V27.45C0,12.31,12.31,0,27.45,0H248.8c15.14,0,27.45,12.31,27.45,27.45V248.8c0,15.14-12.31,27.45-27.45,27.45ZM27.45,7c-11.28,0-20.45,9.17-20.45,20.45V248.8c0,11.28,9.17,20.45,20.45,20.45H248.8c11.28,0,20.45-9.17,20.45-20.45V27.45c0-11.28-9.17-20.45-20.45-20.45H27.45Z"/><g id="d"><g><path class="f" d="M164.74,217.21c-32.21-.03-60.07-22.65-66.7-54.16-7.7-36.6,15.58-72.64,52.1-80.65,1.66-.36,3.34-.61,5.01-.91,.39-.07,.71-.11,.86,.42,1.06,3.62,3.78,5.22,7.27,5.7,2.64,.36,5.21,0,7.49-1.54,1.35-.91,2.4-2.11,2.74-3.74,.17-.79,.48-.92,1.22-.81,8.23,1.22,16.04,3.73,23.23,7.9,19.91,11.56,31.62,28.75,34.58,51.6,3.72,28.77-12.25,57.36-38.56,69.63-9.41,4.39-19.1,6.56-29.26,6.55Zm.05-13.84c30.03,.01,54.4-24.35,54.41-54.38,0-29.99-24.28-54.3-54.3-54.34-30.07-.04-54.43,24.25-54.46,54.29-.03,30.02,24.34,54.41,54.36,54.43Z"/><path class="f" d="M61.78,151.8c-7.02,0-14.03,0-21.05,0-2.24,0-4.07-1.32-4.76-3.34-.67-1.94-.04-4.1,1.56-5.41,1.11-.91,2.42-1.13,3.82-1.13,11.2,0,22.4,0,33.6,0,2.72,0,5.43-.06,8.15,.03,2.63,.09,4.59,2.02,4.79,4.54,.2,2.4-1.43,4.63-3.83,5.17-.54,.12-1.12,.13-1.68,.13-6.86,0-13.73,0-20.59,0Z"/><path class="f" d="M69.47,126.76c-5.92,0-11.84,.03-17.77-.01-3.72-.03-6.11-3.48-4.74-6.79,.82-1.96,2.36-3.01,4.49-3.06,2.15-.05,4.3-.02,6.45-.02,9.73,0,19.46,0,29.2,0,2.46,0,4.22,1.13,5.01,3.15,1.25,3.18-1.03,6.6-4.54,6.7-2.64,.08-5.28,.02-7.92,.02-3.39,0-6.79,0-10.18,0Z"/><path class="f" d="M69.43,176.96c-5.96,0-11.92,.02-17.88,0-2.36,0-4.26-1.53-4.81-3.72-.53-2.11,.39-4.33,2.28-5.45,.59-.35,1.23-.58,1.92-.63,.49-.04,.98-.06,1.47-.06,11.43,0,22.86,0,34.29,0,.95,0,1.89,.03,2.78,.41,2.11,.91,3.34,3.24,2.89,5.46-.46,2.32-2.41,3.98-4.83,3.99-6.04,.03-12.07,.01-18.11,.01Z"/><path class="f" d="M85.57,102.36c-5.02,0-10.04,.03-15.06-.01-3.82-.03-6.24-3.66-4.68-7,.92-1.97,2.57-2.89,4.73-2.89,5.55,0,11.1,0,16.65,0,4.57,0,9.13-.02,13.7,.02,2.14,.02,3.92,1.32,4.62,3.23,.68,1.84,.17,3.95-1.28,5.3-1.08,1.01-2.39,1.36-3.85,1.36-4.94-.02-9.89,0-14.83,0Z"/><path class="f" d="M85.61,201.18c-5.13,0-10.27,.02-15.4-.01-2.18-.01-4.01-1.45-4.63-3.51-.61-2.01,.13-4.17,1.86-5.42,.89-.64,1.89-.92,2.98-.92,10.11,0,20.23-.02,30.34,.01,2.97,.01,5.08,2.16,5.06,4.97-.02,2.79-2.19,4.87-5.15,4.88-5.02,.02-10.04,0-15.06,0Z"/><path class="f" d="M165.25,70.92c-3.77,0-7.55,0-11.32,0-2.84,0-4.42-1.58-4.43-4.41,0-1.21-.03-2.42,.01-3.62,.08-2.04,1.49-3.55,3.51-3.8,.41-.05,.83-.05,1.24-.05,7.36,0,14.72,0,22.08,0,3.3,0,4.78,1.47,4.79,4.75,0,.94,.01,1.89,0,2.83-.05,2.69-1.64,4.29-4.33,4.3-3.85,.01-7.7,0-11.55,0Z"/><path class="f" d="M164.8,72.9c1.43,0,2.87,.03,4.3-.01,.8-.02,1.17,.22,1.16,1.09-.04,2.23,.02,4.45-.03,6.68-.04,1.95-.99,3.22-2.84,3.76-1.77,.52-3.59,.53-5.35-.07-1.67-.57-2.61-1.77-2.64-3.56-.04-2.3,0-4.6-.03-6.91,0-.74,.29-1,1.01-.99,1.47,.03,2.94,0,4.42,0Z"/><path class="f" d="M166.78,124.46c0,5.85,.01,11.7-.02,17.54,0,.81,.14,1.25,1.01,1.57,3.18,1.18,4.95,4.41,4.33,7.71-.6,3.22-3.45,5.59-6.74,5.62-3.34,.03-6.19-2.32-6.84-5.63-.64-3.28,1.14-6.52,4.32-7.7,.8-.3,.99-.68,.99-1.47-.02-11.73-.02-23.47,0-35.2,0-.45-.29-1.14,.3-1.3,.78-.21,1.67-.24,2.45,.04,.37,.13,.19,.68,.19,1.05,0,5.92,0,11.85,0,17.77Z"/><path class="f" d="M182.78,127.69c.33-.03,.45,.19,.61,.34,1.29,1.27,2.56,2.57,3.86,3.83,.43,.41,.4,.71,0,1.11-3.59,3.56-7.17,7.13-10.73,10.72-.46,.46-.68,.43-.95-.17-.78-1.75-1.97-3.12-3.8-3.84-.55-.21-.61-.44-.18-.87,3.61-3.59,7.21-7.19,10.82-10.79,.13-.13,.28-.24,.38-.33Z"/></g></g></g></g></g></svg>