<?xml version="1.0" encoding="UTF-8"?><svg xmlns="http://www.w3.org/2000/svg" viewBox="0 0 276.25 276.25"><defs><style>.e{fill:#95918c;}.f{fill:#95918d;}</style></defs><g id="a"/><g id="b"><g id="c"><g><path class="e" d="M248.8,276.25H27.45c-15.14,0-27.45-12.31-27.45-27.45V27.45C0,12.31,12.32,0,27.45,0H248.8c15.14,0,27.45,12.31,27.45,27.45V248.8c0,15.14-12.31,27.45-27.45,27.45ZM27.45,7c-11.28,0-20.45,9.17-20.45,20.45V248.8c0,11.28,9.17,20.45,20.45,20.45H248.8c11.28,0,20.45-9.17,20.45-20.45V27.45c0-11.28-9.17-20.45-20.45-20.45H27.45Z"/><g id="d"><g><path class="f" d="M120.98,98.36c-1.81-.03-3.89,.04-5.97-.13-4.69-.39-7.89-5.67-6-9.97,.26-.59,.7-1.12,1.12-1.62,7.52-8.91,15.41-17.5,23.4-25.99,1.98-2.1,5.98-2.36,8.3-.6,2.46,1.87,4.46,4.21,6.54,6.47,5.95,6.46,11.77,13.05,17.56,19.65,2.9,3.31,2.36,8.27-1.24,10.86-1.12,.81-2.38,1.08-3.72,1.18-3.83,.27-7.66,.15-11.49,.14-.96,0-1.28,.19-1.28,1.23-.02,8.82-.11,17.64-.2,26.46-.01,1.32-.15,2.64-.22,3.96-.27,4.49-5.91,8.71-10.86,7.95-3.21-.5-5.64-2.12-7.28-4.92-.86-1.47-1.32-2.99-1.3-4.76,.08-9.55,.04-19.09,.04-28.64q0-1.25-1.29-1.25c-1.95,0-3.9,0-6.11,0Z"/><path class="f" d="M139.2,148.34c5.04-.07,11.23,.72,17.17,3.02,3.56,1.38,6.75,3.32,9.27,6.25,2.58,3.01,2.83,6.7,.67,10.07-1.64,2.55-4.02,4.26-6.66,5.61-4.89,2.5-10.14,3.73-15.57,4.28-8.09,.82-16.03,.13-23.7-2.69-3.37-1.24-6.52-2.9-9.03-5.55-3.57-3.75-3.73-8.13-.47-12.01,.38-.45,.8-.88,1.24-1.28,2.86-2.61,6.27-4.25,9.91-5.44,5.24-1.72,9.16-2.25,17.18-2.25Z"/><path class="f" d="M87.81,128.52c7.67-.1,14.47,.97,20.9,3.92,3.3,1.51,6.16,3.59,8.14,6.71,1.33,2.09,1.22,2.23-1.08,3.18-6.57,2.72-12.19,6.6-15.54,13.14-.53,1.05-1.23,1.77-2.53,1.91-8.88,1-17.67,1.04-26.22-2.08-2.83-1.03-5.54-2.32-7.96-4.16-.9-.68-1.72-1.44-2.45-2.31-2.98-3.55-2.99-7.63,0-11.17,2.62-3.09,6.06-4.96,9.77-6.36,5.67-2.14,11.57-2.9,16.95-2.8Z"/><path class="f" d="M187.47,148.35c6.99-.1,13.57,.89,19.83,3.59,2.68,1.16,5.12,2.7,7.24,4.75,3.59,3.47,3.79,9.12-.05,12.78-2.39,2.28-5.15,3.89-8.19,5.08-7.72,3.01-15.73,3.81-23.94,3.06-1.35-.12-2.69-.25-4.03-.48-.93-.16-1.52-.63-2.03-1.4-1.03-1.55-1.39-2.9-.45-4.85,3.25-6.75,2.33-13.2-2.11-19.18-1.08-1.46-1.08-1.44,.69-1.88,4.35-1.08,8.76-1.62,13.03-1.49Z"/><path class="f" d="M166.17,178.12c2.18,2.72,2.15,6.82-.12,9.84-2.28,3.04-5.46,4.84-8.89,6.23-7.36,2.99-15.05,3.88-22.92,3.38-5.88-.37-11.57-1.56-16.91-4.15-2.79-1.35-5.34-3.05-7.16-5.64-2.05-2.92-2.25-5.98-.52-9.14,.23-.42,.45-.77,.92-.21,2.48,2.99,5.74,4.84,9.28,6.2,7.02,2.7,14.34,3.42,21.8,3.04,4.8-.25,9.52-1.03,14.04-2.71,4.01-1.49,7.63-3.59,10.48-6.86Z"/><path class="f" d="M138.09,217.34c-6.38,.11-12.67-.64-18.66-3.15-3.44-1.44-6.69-3.19-9.02-6.23-2.26-2.93-2.53-6.07-.83-9.37,.23-.44,.42-.79,.91-.27,5.13,5.54,11.88,7.55,19.01,8.6,7.18,1.06,14.36,.89,21.46-.72,4.79-1.08,9.23-2.96,13.08-6.09,.54-.44,1.04-.91,1.49-1.45,.62-.76,.9-.74,1.32,.16,1.47,3.19,1.21,6.23-.92,9.05-2.31,3.05-5.52,4.87-8.98,6.28-6.03,2.45-12.32,3.42-18.85,3.18Z"/><path class="f" d="M87.14,177.77c-5.77,.17-12.57-1.07-19.02-4-2.76-1.25-5.29-2.85-7.23-5.25-2.38-2.94-2.69-7.03-.79-9.79,.29-.43,.47-.54,.85-.09,3.55,4.17,8.36,6.13,13.45,7.5,7.7,2.07,15.51,2.32,23.38,1.15,.94-.14,1.41-.07,1.61,1.02,.26,1.39,.97,2.66,1.62,3.92,.31,.59,.34,1.11-.02,1.66-.12,.19-.25,.4-.3,.62-.45,2.01-1.88,2.57-3.74,2.78-2.83,.32-5.66,.43-9.8,.46Z"/><path class="f" d="M89.06,197.63c-6.19-.14-12.33-.59-18.19-2.87-3.66-1.42-7.11-3.19-9.76-6.21-2.42-2.76-2.83-5.87-1.48-9.23,.45-1.13,.86-1.22,1.72-.35,4.59,4.62,10.41,6.58,16.58,7.8,6.61,1.3,13.25,1.28,19.9,.31,.58-.09,.76,.02,.76,.61,.01,2.74,.04,5.48,.1,8.22,.02,.78-.49,.91-1.06,1.03-2.83,.59-5.7,.66-8.57,.69Z"/><path class="f" d="M215.69,178.11c2.03,2.44,2.28,6.04,.64,8.75-1.73,2.88-4.31,4.78-7.23,6.28-5.16,2.66-10.73,3.84-16.46,4.33-4.76,.41-9.5,.21-14.22-.46-.68-.1-.87-.34-.84-1,.09-2.57,.13-5.15,.2-7.72,.03-1.2,.07-1.25,1.26-1.08,5.2,.73,10.41,.75,15.61,.19,6.06-.66,11.86-2.25,17.04-5.63,1.52-1,2.91-2.16,4-3.65Z"/></g></g></g></g></g></svg>