<?xml version="1.0" encoding="UTF-8"?><svg xmlns="http://www.w3.org/2000/svg" viewBox="0 0 276.25 276.25"><defs><style>.e{fill:#95918c;}.f{fill:#95918d;}</style></defs><g id="a"/><g id="b"><g id="c"><g><path class="e" d="M248.8,276.25H27.45c-15.14,0-27.45-12.31-27.45-27.45V27.45C0,12.31,12.31,0,27.45,0H248.8c15.14,0,27.45,12.31,27.45,27.45V248.8c0,15.14-12.31,27.45-27.45,27.45ZM27.45,7c-11.28,0-20.45,9.17-20.45,20.45V248.8c0,11.28,9.17,20.45,20.45,20.45H248.8c11.28,0,20.45-9.17,20.45-20.45V27.45c0-11.28-9.17-20.45-20.45-20.45H27.45Z"/><g id="d"><g><path class="f" d="M196.62,112.34c-.14,5.98-2.1,11.43-6.46,15.8-17.34,17.42-34.73,34.77-52.1,52.15-1.88,1.88-4.2,2.76-6.79,2.92-2.88,.17-5.76,.2-8.64,.34-2.93,.15-5.41,1.25-7.53,3.37-14.12,14.18-28.29,28.3-42.42,42.46-3.1,3.11-6.71,4.56-11.11,3.63-8.3-1.76-11.87-11.59-6.63-18.26,.59-.75,1.27-1.44,1.95-2.12,13.68-13.68,27.3-27.42,41.08-41,2.89-2.85,4.11-6.07,4.21-9.95,.06-2.52-.05-5.04,.33-7.55,.4-2.71,1.5-4.99,3.47-6.93,5.18-5.1,10.28-10.29,15.46-15.39,.87-.86,1-1.35,.05-2.26-1.1-1.05-3.05-2-2.89-3.39,.13-1.18,1.88-2.2,2.93-3.26q2.66-2.68,5.41,.06,1.65,1.65,3.35-.05c9.09-9.09,18.1-18.27,27.3-27.25,12.08-11.78,32.36-6.84,37.77,9.09,.82,2.41,1.21,4.89,1.26,7.58Zm-24.12-5.26c-.25-.28-.43-.52-.64-.72-.8-.81-1.67-1.56-2.4-2.43-.74-.89-1.24-.74-1.99,.03-3.82,3.9-7.7,7.74-11.56,11.6-3.26,3.26-3.24,3.24,.19,6.43,.72,.67,1.09,.59,1.73-.05,4.64-4.69,9.32-9.34,13.98-14.01,.25-.25,.45-.54,.7-.84Zm-5.24,25.68c.31-.29,.67-.59,1.01-.93,3.82-3.81,7.64-7.63,11.45-11.45,3.13-3.13,3.08-3.08,.04-6.18-.95-.97-1.43-.75-2.25,.09-3.82,3.9-7.7,7.73-11.56,11.6q-3,3,.11,6.02c.34,.32,.59,.77,1.2,.86Z"/><path class="f" d="M163.95,163c.23-.78,.83-1.13,1.28-1.59,9.59-9.61,19.24-19.16,28.78-28.83,10.41-10.54,11.3-26.88,2.22-38.28-10.41-13.06-30.7-14.42-42.76-2.81-4.15,4-8.2,8.11-12.23,12.24-.89,.91-1.38,.88-2.25-.02-3.82-3.91-7.69-7.78-11.6-11.6-.84-.82-.9-1.44-.37-2.46,8.79-16.9,22.45-27.07,41.51-28.98,28.09-2.82,52.57,16.79,56.49,44.77,3.85,27.54-15.92,53.95-43.36,57.99-5.4,.8-10.76,.84-16.14-.08-.52-.09-1.03-.24-1.56-.36Z"/><path class="f" d="M88.04,72.95c.45,.42,.85,.77,1.23,1.15,9.64,9.64,19.31,19.26,28.89,28.95,1.19,1.2,1.86,1.19,2.89-.05,.96-1.15,2.18-2.08,3.14-3.22,.93-1.1,1.59-1.3,2.61-.07,1.15,1.38,2.48,2.62,3.81,3.83,.8,.73,.86,1.19,.04,2-9.12,9.06-18.2,18.15-27.27,27.26-.75,.75-1.19,.68-1.86-.04-1.35-1.45-2.74-2.87-4.21-4.2-.88-.79-.71-1.26,.07-1.96,1.2-1.08,2.23-2.37,3.47-3.4,1.31-1.08,1.35-1.76,.07-3.03-8.98-8.85-17.88-17.79-26.79-26.72-1.09-1.1-3.02-2.08-2.97-3.39,.04-1.11,1.87-2.17,2.93-3.23,4.28-4.29,8.58-8.58,12.87-12.87,.33-.33,.68-.64,1.08-1Z"/></g></g></g></g></g></svg>